{
	"asset":{
		"generator":"Khronos glTF Blender I/O v4.5.47",
		"version":"2.0"
	},
	"scene":0,
	"scenes":[
		{
			"name":"Scene",
			"nodes":[
				0,
				3
			]
		}
	],
	"nodes":[
		{
			"mesh":0,
			"name":"Cube",
			"translation":[
				-2.0381226539611816,
				-2.9519309997558594,
				0.5027269721031189
			]
		},
		{
			"mesh":1,
			"name":"Mesh_0"
		},
		{
			"mesh":2,
			"name":"Mesh_1"
		},
		{
			"children":[
				1,
				2
			],
			"name":"Node_2"
		}
	],
	"materials":[
		{
			"doubleSided":true,
			"name":"Material",
			"pbrMetallicRoughness":{
				"baseColorFactor":[
					0.800000011920929,
					0.800000011920929,
					0.800000011920929,
					1
				],
				"metallicFactor":0,
				"roughnessFactor":0.5
			}
		},
		{
			"name":"Material_0",
			"pbrMetallicRoughness":{
				"baseColorTexture":{
					"index":0
				},
				"metallicFactor":0
			}
		},
		{
			"name":"Material_1",
			"pbrMetallicRoughness":{
				"baseColorTexture":{
					"index":1
				},
				"metallicFactor":0
			}
		}
	],
	"meshes":[
		{
			"name":"Cube",
			"primitives":[
				{
					"attributes":{
						"POSITION":0,
						"NORMAL":1,
						"TEXCOORD_0":2
					},
					"indices":3,
					"material":0
				}
			]
		},
		{
			"name":"Mesh_0",
			"primitives":[
				{
					"attributes":{
						"POSITION":4,
						"NORMAL":5,
						"TEXCOORD_0":6
					},
					"indices":7,
					"material":1
				}
			]
		},
		{
			"name":"Mesh_1",
			"primitives":[
				{
					"attributes":{
						"POSITION":8,
						"NORMAL":9,
						"TEXCOORD_0":10
					},
					"indices":11,
					"material":2
				}
			]
		}
	],
	"textures":[
		{
			"sampler":0,
			"source":0
		},
		{
			"sampler":0,
			"source":1
		}
	],
	"images":[
		{
			"mimeType":"image/jpeg",
			"name":"65248dbbeaffc53ef058f2d65f5e3486",
			"uri":"65248dbbeaffc53ef058f2d65f5e3486.jpg"
		},
		{
			"mimeType":"image/jpeg",
			"name":"78779c451636ef26ebbbe807facf8188",
			"uri":"78779c451636ef26ebbbe807facf8188.jpg"
		}
	],
	"accessors":[
		{
			"bufferView":0,
			"componentType":5126,
			"count":24,
			"max":[
				1,
				1,
				1
			],
			"min":[
				-1,
				-1,
				-1
			],
			"type":"VEC3"
		},
		{
			"bufferView":1,
			"componentType":5126,
			"count":24,
			"type":"VEC3"
		},
		{
			"bufferView":2,
			"componentType":5126,
			"count":24,
			"type":"VEC2"
		},
		{
			"bufferView":3,
			"componentType":5123,
			"count":36,
			"type":"SCALAR"
		},
		{
			"bufferView":4,
			"componentType":5126,
			"count":260924,
			"max":[
				2.266970157623291,
				1.8683347702026367,
				1.8318440914154053
			],
			"min":[
				-2.2403111457824707,
				-1.8664543628692627,
				-1.8318440914154053
			],
			"type":"VEC3"
		},
		{
			"bufferView":5,
			"componentType":5126,
			"count":260924,
			"type":"VEC3"
		},
		{
			"bufferView":6,
			"componentType":5126,
			"count":260924,
			"type":"VEC2"
		},
		{
			"bufferView":7,
			"componentType":5125,
			"count":260982,
			"type":"SCALAR"
		},
		{
			"bufferView":8,
			"componentType":5126,
			"count":221205,
			"max":[
				2.263465642929077,
				1.7301430702209473,
				1.8318440914154053
			],
			"min":[
				-2.266970157623291,
				-1.8683347702026367,
				-1.830018162727356
			],
			"type":"VEC3"
		},
		{
			"bufferView":9,
			"componentType":5126,
			"count":221205,
			"type":"VEC3"
		},
		{
			"bufferView":10,
			"componentType":5126,
			"count":221205,
			"type":"VEC2"
		},
		{
			"bufferView":11,
			"componentType":5125,
			"count":221259,
			"type":"SCALAR"
		}
	],
	"bufferViews":[
		{
			"buffer":0,
			"byteLength":288,
			"byteOffset":0,
			"target":34962
		},
		{
			"buffer":0,
			"byteLength":288,
			"byteOffset":288,
			"target":34962
		},
		{
			"buffer":0,
			"byteLength":192,
			"byteOffset":576,
			"target":34962
		},
		{
			"buffer":0,
			"byteLength":72,
			"byteOffset":768,
			"target":34963
		},
		{
			"buffer":0,
			"byteLength":3131088,
			"byteOffset":840,
			"target":34962
		},
		{
			"buffer":0,
			"byteLength":3131088,
			"byteOffset":3131928,
			"target":34962
		},
		{
			"buffer":0,
			"byteLength":2087392,
			"byteOffset":6263016,
			"target":34962
		},
		{
			"buffer":0,
			"byteLength":1043928,
			"byteOffset":8350408,
			"target":34963
		},
		{
			"buffer":0,
			"byteLength":2654460,
			"byteOffset":9394336,
			"target":34962
		},
		{
			"buffer":0,
			"byteLength":2654460,
			"byteOffset":12048796,
			"target":34962
		},
		{
			"buffer":0,
			"byteLength":1769640,
			"byteOffset":14703256,
			"target":34962
		},
		{
			"buffer":0,
			"byteLength":885036,
			"byteOffset":16472896,
			"target":34963
		}
	],
	"samplers":[
		{
			"magFilter":9729,
			"minFilter":9987
		}
	],
	"buffers":[
		{
			"byteLength":17357932,
			"uri":"room.bin"
		}
	]
}
